<?xml version="1.0" encoding="utf-8"?>
<!-- Generator: Adobe Illustrator 25.0.1, SVG Export Plug-In . SVG Version: 6.00 Build 0)  -->
<svg version="1.1" id="Layer_1" xmlns="http://www.w3.org/2000/svg" xmlns:xlink="http://www.w3.org/1999/xlink" x="0px" y="0px"
	 viewBox="0 0 64 80" style="enable-background:new 0 0 64 80;" xml:space="preserve">
<path d="M2.9,23.9c-0.8,0-1.5,0.7-1.5,1.5v13.2c0,0.8,0.7,1.5,1.5,1.5s1.5-0.7,1.5-1.5V25.4C4.4,24.6,3.8,23.9,2.9,23.9z"/>
<path d="M11.2,19.4c-0.8,0-1.5,0.7-1.5,1.5v22.2c0,0.8,0.7,1.5,1.5,1.5s1.5-0.7,1.5-1.5V20.9C12.7,20,12.1,19.4,11.2,19.4z"/>
<path d="M19.5,12.3c-0.8,0-1.5,0.7-1.5,1.5v36.3c0,0.8,0.7,1.5,1.5,1.5S21,51,21,50.2V13.8C21,13,20.4,12.3,19.5,12.3z"/>
<path d="M27.8,23.2c-0.8,0-1.5,0.7-1.5,1.5v14.7c0,0.8,0.7,1.5,1.5,1.5s1.5-0.7,1.5-1.5V24.7C29.3,23.8,28.7,23.2,27.8,23.2z"/>
<path d="M36.2,26.3c-0.8,0-1.5,0.7-1.5,1.5v8.3c0,0.8,0.7,1.5,1.5,1.5s1.5-0.7,1.5-1.5v-8.3C37.7,27,37,26.3,36.2,26.3z"/>
<path d="M44.5,17.9c-0.8,0-1.5,0.7-1.5,1.5v25.2c0,0.8,0.7,1.5,1.5,1.5s1.5-0.7,1.5-1.5V19.4C46,18.6,45.3,17.9,44.5,17.9z"/>
<path d="M52.8,23.2c-0.8,0-1.5,0.7-1.5,1.5v14.7c0,0.8,0.7,1.5,1.5,1.5s1.5-0.7,1.5-1.5V24.7C54.3,23.8,53.6,23.2,52.8,23.2z"/>
<path d="M61.1,26c-0.8,0-1.5,0.7-1.5,1.5v9c0,0.8,0.7,1.5,1.5,1.5s1.5-0.7,1.5-1.5v-9C62.6,26.6,61.9,26,61.1,26z"/>
</svg>
